<?xml version="1.0" encoding="utf-8"?>
<!-- Generator: Adobe Illustrator 15.1.0, SVG Export Plug-In . SVG Version: 6.00 Build 0)  -->
<!DOCTYPE svg PUBLIC "-//W3C//DTD SVG 1.1//EN" "http://www.w3.org/Graphics/SVG/1.1/DTD/svg11.dtd">
<svg version="1.1" id="Layer_1" xmlns="http://www.w3.org/2000/svg" xmlns:xlink="http://www.w3.org/1999/xlink" x="0px" y="0px"
	 width="250px" height="250px" viewBox="0 0 250 250" enable-background="new 0 0 250 250" xml:space="preserve">
<g>
	<path fill="#DCDBDB" d="M11.205,185.063c-4.165,0-7.538,3.375-7.538,7.537c0,4.165,3.374,7.539,7.538,7.539
		c4.163,0,7.539-3.374,7.539-7.539C18.744,188.438,15.368,185.063,11.205,185.063"/>
	<path fill="#DCDBDB" d="M101.938,234.922c-4.164,0-7.538,3.374-7.538,7.539c0,4.161,3.375,7.537,7.538,7.537
		c4.163,0,7.539-3.376,7.539-7.537C109.476,238.296,106.1,234.922,101.938,234.922"/>
	<path fill="#DCDBDB" d="M86.047,228.982c0.197-0.818,0.313-1.662,0.313-2.537c0-3.733-1.901-7.019-4.783-8.952
		c0.059-0.344,0.101-0.698,0.127-1.053c7.292-4.87,12.204-13.018,12.624-22.337c2.996-2.15,4.956-5.654,4.956-9.621
		c0-6.544-5.305-11.846-11.846-11.846c-0.472,0-0.933,0.033-1.389,0.086c-0.206-0.206-0.421-0.401-0.631-0.604
		c-1.558-5.83-6.258-10.371-12.184-11.682c0.004-0.133,0.021-0.263,0.021-0.396c0-6.298-5.106-11.404-11.404-11.404
		c-5.024,0-9.281,3.256-10.802,7.767c-0.141-0.004-0.28-0.02-0.423-0.02c-3.511,0-6.649,1.589-8.741,4.087
		c-3.805,0.182-7.098,2.294-8.927,5.384c-1.638-0.968-3.54-1.531-5.581-1.531c-6.077,0-11.004,4.924-11.004,11.003
		c0,5.071,3.436,9.33,8.104,10.603c-0.977,2.091-1.537,4.412-1.537,6.869c0,5.721,2.954,10.739,7.415,13.644
		c-4.016,3.488-5.429,9.328-3.074,14.394c1.477,3.178,4.15,5.414,7.233,6.442c0.436,8.531,7.472,15.321,16.111,15.321
		c2.566,0,4.983-0.615,7.138-1.682c1.893,1.646,4.355,2.65,7.061,2.65c2.048,0,3.956-0.582,5.587-1.577
		c1.541,4.063,5.458,6.962,10.063,6.962c5.948,0,10.769-4.823,10.769-10.769C91.242,234.277,89.159,230.869,86.047,228.982"/>
	<path fill="#DCDBDB" d="M109.476,222.03c-2.974,0-5.384,2.408-5.384,5.385c0,2.972,2.41,5.385,5.384,5.385
		c2.973,0,5.385-2.413,5.385-5.385C114.861,224.438,112.449,222.03,109.476,222.03"/>
	<path fill="#010101" d="M207.007,11.769c7.117,0,13.831,0.645,19.872,1.854c1.362,0.273,2.58,0.942,3.523,1.885
		c0.941,0.942,1.61,2.158,1.884,3.522c5.826,29.132-1.43,74.015-31.133,103.717c-15.15,15.15-28.925,23.967-43.865,31.472
		c1.698,15.108-0.254,32.146-9.755,41.647c-7.136,7.137-16.885,11.661-27.334,11.661c-3.826,0-7.741-0.605-11.662-1.912
		c7.188-7.187,14.361-19.679,9.826-33.56c-3.73,1.738-7.582,3.585-11.618,5.604c-0.979,0.49-2.034,0.728-3.08,0.728
		c-1.787,0-3.552-0.693-4.876-2.021l-29.249-29.246c-2.096-2.095-2.618-5.302-1.291-7.957c2.02-4.036,3.864-7.888,5.604-11.618
		c-3.016-0.985-5.967-1.417-8.811-1.417c-10.249-0.002-19.123,5.616-24.748,11.243c-4.875-14.625,0-29.247,9.749-38.997
		c7.512-7.513,19.739-10.305,31.998-10.305c3.245,0,6.488,0.196,9.65,0.551c7.505-14.94,16.322-28.716,31.47-43.865
		C146.705,21.212,179.79,11.77,207.007,11.769 M207.011,1v10.769V1c-15.753,0-31.995,2.874-46.977,8.31
		c-17.35,6.294-32.316,15.657-44.488,27.831c-12.469,12.468-21.725,24.783-30.122,40.222c-1.136-0.041-2.265-0.062-3.384-0.062
		c-11.93,0-28.488,2.335-39.612,13.459c-13.427,13.427-18.159,32.593-12.352,50.016l5.51,16.53l12.321-12.319
		c1.575-1.576,4.873-4.503,9.219-6.371c-1.209,5.747,0.505,11.825,4.8,16.12l29.246,29.248c3.338,3.337,7.774,5.175,12.492,5.175
		c1.208,0,2.415-0.126,3.597-0.375c-1.925,4.479-4.945,7.824-6.339,9.217l-12.32,12.321l16.532,5.511
		c4.905,1.634,9.974,2.466,15.065,2.466c12.796,0,25.535-5.401,34.951-14.818c9.33-9.329,14.071-24.739,13.4-42.995
		c15.436-8.397,27.749-17.652,40.22-30.123c14.976-14.975,25.938-34.684,31.701-56.993c4.965-19.228,5.811-39.276,2.377-56.451
		c-0.692-3.438-2.361-6.557-4.832-9.027c-2.472-2.47-5.589-4.14-9.017-4.827C222.146,1.693,214.751,1,207.011,1"/>
	<path fill="#DCDBDB" d="M189.607,80.353c-6.812,6.814-17.686,7.056-24.812,0.761l-80.63,80.632l14.624,14.621
		c2.098,2.102,5.303,2.619,7.955,1.294c4.039-2.02,7.89-3.866,11.619-5.604c4.537,13.879-2.636,26.37-9.825,33.56
		c14.622,4.872,29.246,0,38.995-9.751c9.499-9.499,11.455-26.539,9.755-41.647c14.942-7.505,28.717-16.32,43.865-31.471
		c29.703-29.702,36.959-74.584,31.133-103.717c-0.273-1.364-0.942-2.58-1.884-3.522l-40.033,40.031
		C196.664,62.665,196.423,73.539,189.607,80.353"/>
	<path fill="#9E459A" d="M160.696,83.61c8.884,8.884,23.285,8.883,32.17,0c8.882-8.883,8.884-23.285,0-32.17
		c-8.885-8.882-23.288-8.883-32.17,0C151.812,60.323,151.812,74.727,160.696,83.61"/>
	
		<rect x="154.103" y="-20.122" transform="matrix(-0.7072 -0.707 0.707 -0.7072 205.9812 262.4478)" fill="#010101" width="6.461" height="217.39"/>
	<path fill="#9E459A" d="M160.696,83.61c8.884,8.884,23.285,8.883,32.17,0c8.882-8.883,8.884-23.285,0-32.17
		c-8.885-8.882-23.288-8.883-32.17,0C151.812,60.323,151.812,74.727,160.696,83.61"/>
	<path fill="#010101" d="M176.782,44.777c5.819,0,11.642,2.22,16.084,6.664c8.884,8.885,8.882,23.286,0,32.168
		c-4.442,4.442-10.262,6.664-16.084,6.664s-11.644-2.222-16.086-6.664c-8.883-8.882-8.883-23.285,0-32.168
		C165.139,46.999,170.96,44.777,176.782,44.777 M176.782,38.315c-7.804,0-15.138,3.038-20.655,8.555
		c-5.517,5.516-8.554,12.852-8.554,20.654c0,7.802,3.037,15.138,8.554,20.653c5.518,5.517,12.852,8.556,20.655,8.556
		c7.801,0,15.135-3.039,20.652-8.556c11.389-11.388,11.389-29.918,0-41.306C191.917,41.354,184.583,38.315,176.782,38.315"/>
	<path fill="#FFFFFF" d="M167.881,46.634v41.909c3.222,1.356,6.688,1.926,10.123,1.731v-45.37
		C174.569,44.71,171.103,45.278,167.881,46.634"/>
	<path fill="#FFFFFF" d="M185.792,46.747c-1.271-0.553-2.575-0.979-3.907-1.287v44.26c1.332-0.31,2.637-0.737,3.907-1.288V46.747z"
		/>
	<path fill="#010101" d="M80.478,111.85c-0.331,0-0.663-0.04-0.996-0.122c-2.221-0.548-3.579-2.791-3.033-5.013
		c0.155-0.63,3.916-15.652,14.322-34.483c1.107-2.003,3.627-2.729,5.633-1.623c2.001,1.107,2.729,3.629,1.623,5.634
		c-9.84,17.803-13.492,32.31-13.528,32.454C84.033,110.585,82.34,111.85,80.478,111.85"/>
</g>
</svg>
