<?xml version="1.0" encoding="UTF-8" ?>
<!DOCTYPE svg PUBLIC "-//W3C//DTD SVG 1.1//EN" "http://www.w3.org/Graphics/SVG/1.1/DTD/svg11.dtd">
<svg width="1140pt" height="1272pt" viewBox="0 0 1140 1272" version="1.1" xmlns="http://www.w3.org/2000/svg">
<g id="#cf142bff">
<path fill="#cf142b" opacity="1.00" d=" M 512.75 45.43 C 532.60 36.97 554.72 34.68 576.09 36.60 C 593.92 38.20 611.51 43.53 626.68 53.16 L 626.75 53.30 C 626.73 204.94 626.78 356.58 626.72 508.21 L 627.23 508.63 C 784.49 508.62 941.76 508.62 1099.02 508.63 C 1099.04 593.38 1099.04 678.13 1099.02 762.88 C 941.61 762.89 784.19 762.85 626.78 762.89 C 626.72 914.67 626.75 1066.45 626.76 1218.22 C 608.21 1230.25 585.91 1235.30 563.99 1235.54 C 546.54 1235.67 528.85 1232.98 512.75 1226.08 C 512.74 1071.72 512.76 917.37 512.74 763.02 C 467.52 762.69 422.24 762.97 377.00 762.88 C 259.89 762.88 142.79 762.88 25.69 762.88 C 25.67 678.13 25.67 593.38 25.69 508.63 C 188.03 508.62 350.37 508.63 512.71 508.62 C 512.80 354.23 512.72 199.82 512.75 45.43 Z" />
<path fill="#cf142b" opacity="1.00" d=" M 877.08 197.86 C 896.07 208.58 914.89 219.68 933.84 230.51 L 932.85 230.32 C 914.10 252.05 894.55 273.06 875.59 294.58 C 837.01 337.40 798.66 380.60 760.01 423.37 C 750.02 423.77 739.99 423.43 729.98 423.54 C 711.68 423.40 693.35 423.82 675.07 423.33 C 706.58 388.42 737.90 353.21 769.35 318.26 C 805.14 278.08 841.34 238.19 877.08 197.86 Z" />
<path fill="#cf142b" opacity="1.00" d=" M 145.42 256.81 C 163.96 246.02 182.57 235.34 201.14 224.61 C 224.57 250.25 247.58 276.39 270.95 302.24 C 305.80 341.28 340.89 380.22 375.69 419.22 C 376.38 420.98 379.10 421.42 378.86 423.55 C 350.84 423.52 322.82 423.57 294.80 423.52 C 244.97 368.07 195.11 312.54 145.42 256.81 Z" />
<path fill="#cf142b" opacity="1.00" d=" M 379.89 847.84 C 408.14 847.28 436.50 848.10 464.76 847.43 C 455.20 858.64 445.06 869.39 435.40 880.47 C 377.25 945.16 319.13 1010.23 261.01 1074.96 C 260.20 1076.72 257.69 1077.37 257.44 1079.33 L 257.43 1079.46 C 238.76 1068.50 219.93 1057.84 201.24 1046.92 C 251.05 991.37 300.73 935.92 350.46 880.44 C 360.30 869.61 369.86 858.48 379.89 847.84 Z" />
<path fill="#cf142b" opacity="1.00" d=" M 760.15 847.60 C 788.18 847.79 816.23 847.56 844.27 847.71 C 846.12 848.40 846.95 850.34 848.31 851.65 C 895.36 904.09 942.16 956.48 989.29 1008.85 C 970.72 1019.77 952.02 1030.51 933.31 1041.19 C 880.11 982.20 827.30 922.85 774.19 863.87 C 769.69 858.28 764.24 853.47 760.15 847.60 Z" />
</g>
<g id="#ffffffff">
<path fill="#ffffff" opacity="1.00" d=" M 502.56 50.59 C 505.84 48.67 509.23 46.89 512.75 45.43 C 512.72 199.82 512.80 354.23 512.71 508.62 C 350.37 508.63 188.03 508.62 25.69 508.63 C 25.69 480.26 25.67 451.90 25.70 423.53 C 101.12 423.48 176.55 423.68 251.96 423.44 C 237.11 406.29 221.62 389.44 206.47 372.43 C 177.07 339.66 147.74 306.88 118.35 274.15 L 117.35 273.56 C 117.06 273.60 116.48 273.68 116.19 273.72 C 125.65 268.09 135.72 262.45 145.39 256.77 L 145.42 256.81 C 195.11 312.54 244.97 368.07 294.80 423.52 C 322.82 423.57 350.84 423.52 378.86 423.55 C 379.10 421.42 376.38 420.98 375.69 419.22 C 340.89 380.22 305.80 341.28 270.95 302.24 C 247.58 276.39 224.57 250.25 201.14 224.61 C 229.16 208.46 257.13 192.23 285.17 176.14 C 340.58 237.59 395.67 299.41 451.03 360.98 C 454.35 364.34 456.97 368.33 460.54 371.45 C 464.80 377.22 470.58 381.77 474.44 387.79 C 475.14 373.88 474.56 359.91 474.75 345.98 C 474.74 252.88 474.76 159.78 474.74 66.69 C 483.98 61.26 493.29 55.96 502.56 50.59 Z" />
<path fill="#ffffff" opacity="1.00" d=" M 626.75 53.30 C 639.47 60.49 652.06 67.93 664.77 75.16 L 664.79 75.59 C 664.79 179.35 664.80 283.11 664.78 386.88 C 667.16 385.18 669.33 382.74 671.21 380.34 C 727.53 317.57 783.73 254.85 839.97 192.09 C 843.28 188.83 845.89 184.89 849.35 181.75 C 858.58 187.15 867.93 192.36 877.08 197.86 C 841.34 238.19 805.14 278.08 769.35 318.26 C 737.90 353.21 706.58 388.42 675.07 423.33 C 693.35 423.82 711.68 423.40 729.98 423.54 C 739.99 423.43 750.02 423.77 760.01 423.37 C 798.66 380.60 837.01 337.40 875.59 294.58 C 894.55 273.06 914.10 252.05 932.85 230.32 L 933.84 230.51 C 961.58 246.65 989.50 262.51 1017.19 278.76 C 974.04 326.47 931.40 374.68 888.16 422.39 L 888.18 423.58 C 958.43 423.46 1028.69 423.63 1098.95 423.50 C 1099.13 451.87 1098.98 480.25 1099.02 508.63 C 941.76 508.62 784.49 508.62 627.23 508.63 L 626.72 508.21 C 626.78 356.58 626.73 204.94 626.75 53.30 Z" />
<path fill="#ffffff" opacity="1.00" d=" M 25.69 762.88 C 142.79 762.88 259.89 762.88 377.00 762.88 C 422.24 762.97 467.52 762.69 512.74 763.02 C 512.76 917.37 512.74 1071.72 512.75 1226.08 C 499.60 1219.94 487.45 1211.87 474.77 1204.85 C 474.68 1097.95 474.85 991.04 474.68 884.13 C 437.22 925.35 400.41 967.07 363.09 1008.35 C 337.36 1037.43 310.98 1066.23 285.30 1095.41 L 285.30 1095.41 C 275.96 1090.13 266.68 1084.76 257.44 1079.33 C 257.69 1077.37 260.20 1076.72 261.01 1074.96 C 319.13 1010.23 377.25 945.16 435.40 880.47 C 445.06 869.39 455.20 858.64 464.76 847.43 C 436.50 848.10 408.14 847.28 379.89 847.84 C 369.86 858.48 360.30 869.61 350.46 880.44 C 300.73 935.92 251.05 991.37 201.24 1046.92 C 173.22 1030.80 145.23 1014.60 117.23 998.44 C 162.51 948.12 207.50 897.58 252.80 847.36 C 242.62 848.08 232.29 847.46 222.05 847.67 C 156.60 847.66 91.14 847.68 25.69 847.66 C 25.69 819.40 25.68 791.14 25.69 762.88 Z" />
<path fill="#ffffff" opacity="1.00" d=" M 626.78 762.89 C 784.19 762.85 941.61 762.89 1099.02 762.88 C 1099.03 791.14 1099.03 819.40 1099.02 847.66 C 1042.34 847.68 985.67 847.66 928.99 847.67 C 915.06 847.57 901.11 847.87 887.19 847.52 C 925.46 890.65 964.14 933.35 1002.55 976.44 C 1007.59 981.77 1012.23 987.56 1017.42 992.70 C 1008.03 998.07 998.75 1003.61 989.29 1008.85 C 942.16 956.48 895.36 904.09 848.31 851.65 C 846.95 850.34 846.12 848.40 844.27 847.71 C 816.23 847.56 788.18 847.79 760.15 847.60 C 764.24 853.47 769.69 858.28 774.19 863.87 C 827.30 922.85 880.11 982.20 933.31 1041.19 C 905.27 1057.50 877.19 1073.73 849.04 1089.84 C 848.64 1088.39 847.51 1087.45 846.46 1086.50 C 787.17 1020.36 727.95 954.27 668.67 888.14 C 667.51 886.69 666.37 885.15 664.77 884.19 C 664.83 988.19 664.76 1092.20 664.80 1196.20 C 652.21 1203.66 639.45 1210.90 626.76 1218.22 C 626.75 1066.45 626.72 914.67 626.78 762.89 Z" />
</g>
<g id="#00247dff">
<path fill="#00247d" opacity="1.00" d=" M 285.17 176.14 C 348.32 139.59 411.52 103.11 474.74 66.69 C 474.76 159.78 474.74 252.88 474.75 345.98 C 474.56 359.91 475.14 373.88 474.44 387.79 C 470.58 381.77 464.80 377.22 460.54 371.45 C 456.97 368.33 454.35 364.34 451.03 360.98 C 395.67 299.41 340.58 237.59 285.17 176.14 Z" />
<path fill="#00247d" opacity="1.00" d=" M 664.79 75.59 C 665.26 75.75 666.21 76.08 666.69 76.25 C 727.54 111.48 788.48 146.56 849.35 181.75 C 845.89 184.89 843.28 188.83 839.97 192.09 C 783.73 254.85 727.53 317.57 671.21 380.34 C 669.33 382.74 667.16 385.18 664.78 386.88 C 664.80 283.11 664.79 179.35 664.79 75.59 Z" />
<path fill="#00247d" opacity="1.00" d=" M 79.84 294.83 C 91.77 287.55 104.22 280.56 116.19 273.72 C 116.48 273.68 117.06 273.60 117.35 273.56 L 118.35 274.15 C 147.74 306.88 177.07 339.66 206.47 372.43 C 221.62 389.44 237.11 406.29 251.96 423.44 C 176.55 423.68 101.12 423.48 25.70 423.53 C 25.63 414.03 25.69 404.52 25.67 395.01 C 25.52 378.89 29.86 363.01 36.45 348.40 C 46.15 327.36 60.54 307.95 79.84 294.83 Z" />
<path fill="#00247d" opacity="1.00" d=" M 1017.19 278.76 C 1027.33 284.56 1037.71 290.07 1047.43 296.59 C 1070.69 313.81 1087.05 339.53 1095.13 367.14 C 1100.76 385.41 1098.73 404.70 1098.95 423.50 C 1028.69 423.63 958.43 423.46 888.18 423.58 L 888.16 422.39 C 931.40 374.68 974.04 326.47 1017.19 278.76 Z" />
<path fill="#00247d" opacity="1.00" d=" M 25.69 847.66 C 91.14 847.68 156.60 847.66 222.05 847.67 C 232.29 847.46 242.62 848.08 252.80 847.36 C 207.50 897.58 162.51 948.12 117.23 998.44 C 109.04 993.75 100.89 989.00 92.71 984.30 C 86.65 980.76 80.41 977.47 74.88 973.11 C 60.33 961.86 48.85 947.00 40.25 930.83 C 31.71 914.53 25.83 896.47 25.67 877.94 C 25.68 867.85 25.65 857.75 25.69 847.66 Z" />
<path fill="#00247d" opacity="1.00" d=" M 887.19 847.52 C 901.11 847.87 915.06 847.57 928.99 847.67 C 985.67 847.66 1042.34 847.68 1099.02 847.66 C 1099.02 858.76 1099.10 869.87 1098.98 880.98 C 1098.18 899.12 1092.12 916.70 1083.54 932.57 C 1074.38 949.21 1062.16 964.47 1046.59 975.50 C 1037.16 981.72 1027.13 986.95 1017.42 992.70 C 1012.23 987.56 1007.59 981.77 1002.55 976.44 C 964.14 933.35 925.46 890.65 887.19 847.52 Z" />
<path fill="#00247d" opacity="1.00" d=" M 363.09 1008.35 C 400.41 967.07 437.22 925.35 474.68 884.13 C 474.85 991.04 474.68 1097.95 474.77 1204.85 C 411.60 1168.39 348.38 1132.00 285.30 1095.41 C 310.98 1066.23 337.36 1037.43 363.09 1008.35 Z" />
<path fill="#00247d" opacity="1.00" d=" M 664.77 884.19 C 666.37 885.15 667.51 886.69 668.67 888.14 C 727.95 954.27 787.17 1020.36 846.46 1086.50 C 847.51 1087.45 848.64 1088.39 849.04 1089.84 C 813.60 1110.52 777.97 1130.90 742.46 1151.47 C 716.56 1166.35 690.77 1181.45 664.80 1196.20 C 664.76 1092.20 664.83 988.19 664.77 884.19 Z" />
</g>
</svg>
