<?xml version="1.0" encoding="UTF-8" ?>
<!DOCTYPE svg PUBLIC "-//W3C//DTD SVG 1.1//EN" "http://www.w3.org/Graphics/SVG/1.1/DTD/svg11.dtd">
<svg width="1147pt" height="1272pt" viewBox="0 0 1147 1272" version="1.1" xmlns="http://www.w3.org/2000/svg">
<g id="#ffffffff">
<path fill="#ffffff" opacity="1.00" d=" M 523.29 44.07 C 543.51 36.36 565.68 34.49 587.08 37.00 C 601.89 38.85 616.61 42.97 629.52 50.61 C 663.18 70.02 696.81 89.50 730.48 108.90 C 730.46 460.14 730.47 811.37 730.47 1162.60 C 697.08 1181.83 663.75 1201.15 630.36 1220.39 C 612.30 1231.24 590.93 1235.40 570.06 1235.55 C 550.02 1235.51 529.55 1231.81 511.86 1222.08 C 472.92 1199.62 434.01 1177.10 395.06 1154.66 C 395.04 808.72 395.07 462.79 395.05 116.85 C 430.30 96.52 465.54 76.16 500.78 55.80 C 508.14 51.62 515.31 47.00 523.29 44.07 Z" />
</g>
<g id="#ed2939ff">
<path fill="#ed2939" opacity="1.00" d=" M 730.48 108.90 C 835.23 169.34 939.95 229.82 1044.69 290.29 C 1065.86 301.82 1081.74 321.24 1092.69 342.41 C 1100.93 358.66 1106.49 376.65 1106.37 395.00 C 1106.37 552.02 1106.38 709.04 1106.36 866.06 C 1106.31 874.30 1106.68 882.59 1105.37 890.77 C 1102.46 909.82 1094.62 927.91 1083.99 943.90 C 1074.43 958.05 1062.42 970.89 1047.57 979.54 C 941.88 1040.57 836.18 1101.60 730.47 1162.60 C 730.47 811.37 730.46 460.14 730.48 108.90 Z" />
</g>
<g id="#002395ff">
<path fill="#002395" opacity="1.00" d=" M 92.54 291.47 C 193.38 233.28 294.19 175.02 395.05 116.85 C 395.07 462.79 395.04 808.72 395.06 1154.66 C 296.41 1097.75 197.79 1040.78 99.15 983.84 C 93.52 980.56 87.75 977.48 82.59 973.47 C 67.78 962.14 56.11 947.06 47.42 930.65 C 38.64 913.84 32.69 895.13 32.95 876.02 C 32.95 716.70 32.95 557.37 32.95 398.04 C 32.14 371.11 42.82 344.97 58.28 323.33 C 67.50 310.66 78.84 299.25 92.54 291.47 Z" />
</g>
</svg>
