<?xml version="1.0" encoding="UTF-8" ?>
<!DOCTYPE svg PUBLIC "-//W3C//DTD SVG 1.1//EN" "http://www.w3.org/Graphics/SVG/1.1/DTD/svg11.dtd">
<svg width="1147pt" height="1274pt" viewBox="0 0 1147 1274" version="1.1" xmlns="http://www.w3.org/2000/svg">
<g id="#000000ff">
<path fill="#000000" opacity="1.00" d=" M 510.94 49.93 C 529.10 39.63 550.31 35.86 570.99 35.93 C 591.66 36.21 612.79 40.45 630.65 51.25 C 769.53 131.43 908.41 211.60 1047.29 291.79 C 1061.51 299.98 1073.13 312.07 1082.50 325.42 C 1097.10 346.62 1107.12 371.93 1106.37 397.97 C 1106.36 407.14 1106.37 416.31 1106.37 425.48 C 748.56 425.51 390.76 425.49 32.95 425.50 C 33.48 408.35 31.43 390.93 35.15 374.03 C 40.57 349.75 53.01 327.14 70.13 309.15 C 76.60 302.46 83.85 296.47 91.93 291.84 C 231.60 211.20 371.27 130.56 510.94 49.93 Z" />
</g>
<g id="#dd0000ff">
<path fill="#dd0000" opacity="1.00" d=" M 32.95 425.50 C 390.76 425.49 748.56 425.51 1106.37 425.48 C 1106.36 566.74 1106.38 708.00 1106.36 849.25 C 748.56 849.25 390.76 849.25 32.96 849.25 C 32.94 708.00 32.96 566.75 32.95 425.50 Z" />
</g>
<g id="#ffce00ff">
<path fill="#ffce00" opacity="1.00" d=" M 32.96 849.25 C 390.76 849.25 748.56 849.25 1106.36 849.25 C 1106.33 859.15 1106.39 869.06 1106.34 878.96 C 1105.95 897.60 1099.87 915.72 1091.13 932.04 C 1082.48 947.94 1071.02 962.55 1056.56 973.57 C 1051.17 977.73 1045.12 980.90 1039.27 984.33 C 903.40 1062.79 767.51 1141.22 631.64 1219.67 C 615.09 1229.92 595.59 1234.50 576.29 1235.41 C 557.59 1236.20 538.55 1233.72 521.17 1226.59 C 513.22 1223.37 506.05 1218.60 498.59 1214.44 C 362.71 1135.96 226.79 1057.54 90.92 979.05 C 77.84 971.26 67.00 960.16 58.11 947.90 C 47.47 933.05 39.42 916.22 35.36 898.37 C 31.54 882.27 33.41 865.62 32.96 849.25 Z" />
</g>
</svg>
