<?xml version="1.0" encoding="utf-8"?>
<!-- Generator: Adobe Illustrator 16.0.0, SVG Export Plug-In . SVG Version: 6.00 Build 0)  -->
<!DOCTYPE svg PUBLIC "-//W3C//DTD SVG 1.1//EN" "http://www.w3.org/Graphics/SVG/1.1/DTD/svg11.dtd">
<svg version="1.1" id="Layer_1" xmlns="http://www.w3.org/2000/svg" xmlns:xlink="http://www.w3.org/1999/xlink" x="0px" y="0px"
	 width="800px" height="520px" viewBox="0 0 800 520" enable-background="new 0 0 800 520" xml:space="preserve">
<g>
	<g>
		<defs>
			<path id="SVGID_1_" d="M792.98,481.987c0,16.568-13.433,30-30,30H37.02c-16.568,0-30-13.432-30-30V38.013
				c0-16.568,13.432-30,30-30H762.98c16.567,0,30,13.432,30,30V481.987z"/>
		</defs>
		<clipPath id="SVGID_2_">
			<use xlink:href="#SVGID_1_"  overflow="visible"/>
		</clipPath>
		<g clip-path="url(#SVGID_2_)">
			<rect x="-1.092" y="-4.012" fill="#229FDD" width="800" height="578.104"/>
			<g id="Layer_1_2_">
				<polygon opacity="0.7" fill="#002933" enable-background="new    " points="798.908,-1.38 -1.092,-1.38 -1.092,424.993 
					77.809,329.593 167.309,365.893 307.809,222.593 352.708,304.293 487.108,282.093 610.608,106.793 707.408,194.493 
					798.908,88.593 				"/>
				<path fill="#FFC200" d="M191.908,173.393c0.8,3.101,1.2,6.3,1.2,9.601c0,22.199-18,40.199-40.2,40.199s-40.2-18-40.2-40.199
					s18-40.199,40.2-40.199c2.7,0,5.4,0.3,8,0.8c0,0,2.101,0.3,2.3,2c0.2,1.7-2.1,2-2.1,2c-9.3,2.8-16.1,11.5-16.1,21.7
					c0,12.5,10.199,22.699,22.699,22.699c11,0,20.2-7.801,22.301-18.199c0,0,0-1.102,0.8-1.301
					C191.608,172.293,191.908,173.393,191.908,173.393z"/>
				<g>
					<circle fill="#FFC200" cx="631.008" cy="279.493" r="30.7"/>
					<g>
						<path fill="#FFC200" d="M634.309,235.593c0,1.8-1.5,3.2-3.2,3.2l0,0c-1.8,0-3.2-1.5-3.2-3.2v-13c0-1.8,1.5-3.2,3.2-3.2l0,0
							c1.8,0,3.2,1.5,3.2,3.2V235.593z"/>
						<path fill="#FFC200" d="M634.309,336.493c0,1.801-1.5,3.199-3.2,3.199l0,0c-1.8,0-3.2-1.5-3.2-3.199v-13
							c0-1.801,1.5-3.199,3.2-3.199l0,0c1.8,0,3.2,1.5,3.2,3.199V336.493z"/>
					</g>
					<g>
						<path fill="#FFC200" d="M675.008,282.793c-1.8,0-3.198-1.4-3.198-3.2l0,0c0-1.8,1.5-3.2,3.198-3.2h13c1.802,0,3.2,1.4,3.2,3.2
							l0,0c0,1.8-1.398,3.2-3.2,3.2H675.008z"/>
						<path fill="#FFC200" d="M574.108,282.793c-1.8,0-3.2-1.4-3.2-3.2l0,0c0-1.8,1.5-3.2,3.2-3.2h13c1.8,0,3.2,1.4,3.2,3.2l0,0
							c0,1.8-1.4,3.2-3.2,3.2H574.108z"/>
					</g>
					<g>
						<path fill="#FFC200" d="M664.408,250.793c-1.3,1.3-3.3,1.3-4.6,0l0,0c-1.302-1.301-1.302-3.301,0-4.602l9.198-9.199
							c1.302-1.301,3.302-1.301,4.602,0l0,0c1.3,1.301,1.3,3.301,0,4.601L664.408,250.793z"/>
						<path fill="#FFC200" d="M593.108,322.093c-1.3,1.3-3.3,1.3-4.602,0l0,0c-1.3-1.3-1.3-3.3,0-4.601l9.2-9.199
							c1.3-1.301,3.3-1.301,4.602,0l0,0c1.3,1.3,1.3,3.3,0,4.6L593.108,322.093z"/>
					</g>
					<g>
						<path fill="#FFC200" d="M602.208,246.192c1.3,1.301,1.3,3.301,0,4.602l0,0c-1.3,1.3-3.3,1.3-4.6,0l-9.2-9.2
							c-1.3-1.3-1.3-3.3,0-4.601l0,0c1.3-1.301,3.3-1.301,4.6,0L602.208,246.192z"/>
						<path fill="#FFC200" d="M673.508,317.493c1.302,1.301,1.302,3.301,0,4.601l0,0c-1.3,1.3-3.3,1.3-4.6,0l-9.2-9.2
							c-1.3-1.3-1.3-3.3,0-4.6l0,0c1.3-1.301,3.3-1.301,4.602,0L673.508,317.493z"/>
					</g>
				</g>
				<circle fill="#FFFFFF" cx="81.108" cy="328.593" r="15.8"/>
				<circle fill="#FFFFFF" cx="167.309" cy="365.893" r="15.8"/>
				<circle fill="#FFFFFF" cx="307.809" cy="222.593" r="15.8"/>
				<circle fill="#FFFFFF" cx="352.708" cy="304.292" r="15.8"/>
				<circle fill="#FFFFFF" cx="487.108" cy="282.093" r="15.8"/>
				<circle fill="#FFFFFF" cx="610.608" cy="106.792" r="15.8"/>
				<circle fill="#FFFFFF" cx="706.508" cy="190.192" r="15.8"/>
				<polygon fill="#FFFFFF" points="798.408,82.192 708.108,185.192 609.708,99.393 484.208,277.493 355.408,299.993 
					309.309,212.793 169.708,361.093 79.608,322.593 -1.092,418.493 -1.092,433.993 82.509,334.692 172.208,373.093 
					307.009,229.893 350.009,311.093 490.008,286.593 611.508,114.192 709.008,199.192 798.408,97.293 				"/>
			</g>
		</g>
	</g>
</g>
</svg>
